<?xml version="1.0" encoding="UTF-8"?>
<svg id="Layer_1" data-name="Layer 1" xmlns="http://www.w3.org/2000/svg" viewBox="0 0 773.81 208.6">
  <defs>
    <style>
      .cls-1 {
        fill: #fff;
      }

      .cls-2 {
        fill: #ff0;
      }
    </style>
  </defs>
  <path class="cls-1" d="m341.03,4.15C340,1.64,337.54,0,334.82,0s-5.18,1.64-6.21,4.15l-25.26,60.62-8.42,20.21c-1.43,3.43.19,7.37,3.62,8.8,3.43,1.43,7.37-.19,8.8-3.62l6.69-16.06h41.55l6.69,16.06c1.43,3.43,5.37,5.05,8.8,3.62,3.43-1.43,5.05-5.37,3.62-8.8l-8.42-20.21-25.26-60.62h0Zm8.95,56.48h-30.31l15.16-36.37,15.16,36.37Z"/>
  <path class="cls-1" d="m217.05,0h19.81c25.52,0,47.14,20.87,47.54,46.38.42,26.39-20.85,47.92-47.15,47.92h-20.21c-7.44,0-13.47-6.03-13.47-13.47V13.47C203.58,6.03,209.61,0,217.05,0Zm19.89,13.47h-19.89v67.36h20.21c18.83,0,34.04-15.44,33.67-34.36-.36-18.39-15.6-33-33.99-33Z"/>
  <path class="cls-1" d="m523.21,13.47c-18.61,0-33.68,15.07-33.68,33.68s15.07,33.68,33.68,33.68c16.29,0,29.89-11.58,33.01-26.94h-26.27c-3.73,0-6.74-3.01-6.74-6.74s3.01-6.74,6.74-6.74h30.31c5.43,0,10.44,4.5,9.94,10.65-1.98,24.21-22.27,43.24-46.98,43.24-26.04,0-47.15-21.11-47.15-47.15S497.17,0,523.21,0C535.29,0,546.3,4.55,554.64,12c2.78,2.48,3.01,6.74.53,9.51-2.48,2.78-6.74,3.01-9.51.53-5.96-5.33-13.81-8.57-22.44-8.57Z"/>
  <path class="cls-1" d="m388.57.92c2.91-1.69,6.51-.97,8.57,1.51l55.44,66.54V6.87c0-3.45,2.81-6.62,6.25-6.86,3.94-.27,7.22,2.83,7.22,6.72v80.71c0,2.43-1.24,4.72-3.34,5.94-2.91,1.69-6.51.97-8.57-1.51l-55.44-66.54v62.09c0,3.45-2.81,6.62-6.25,6.86-3.94.27-7.22-2.83-7.22-6.72V6.85c0-2.43,1.24-4.72,3.34-5.94Z"/>
  <path class="cls-2" d="m538.26,114.29c3.73,0,6.74,3.01,6.74,6.74v74.09h40.42c3.73,0,6.74,3.01,6.74,6.74s-3.01,6.74-6.74,6.74h-47.15c-3.73,0-6.74-3.01-6.74-6.74v-80.83c0-3.73,3.01-6.74,6.74-6.74Z"/>
  <path class="cls-2" d="m124.51,127.76c-18.6,0-33.68,15.08-33.68,33.68s15.08,33.68,33.68,33.68,33.68-15.08,33.68-33.68-15.08-33.68-33.68-33.68Zm47.15,33.68c0,26.04-21.11,47.15-47.15,47.15s-47.15-21.11-47.15-47.15,21.11-47.15,47.15-47.15,47.15,21.11,47.15,47.15Z"/>
  <path class="cls-2" d="m13.47,114.29h19.89c18.39,0,33.63,14.62,33.99,33,.37,18.92-14.84,34.36-33.67,34.36H13.47v20.07c0,3.45-2.81,6.62-6.25,6.86-3.94.27-7.22-2.83-7.22-6.72v-74.09c0-7.44,6.03-13.47,13.47-13.47Zm0,53.89h19.96c10.93,0,20.07-8.58,20.44-19.5.39-11.48-8.8-20.92-20.2-20.92H13.47v40.42Z"/>
  <path class="cls-2" d="m363.34,114.29c-7.43,0-13.47,6.04-13.47,13.47v74.09c0,3.73,3.01,6.74,6.74,6.74s6.74-3.01,6.74-6.74v-33.68h33.68c3.73,0,6.74-3.01,6.74-6.74s-3.01-6.74-6.74-6.74h-33.68v-26.94h47.15c3.73,0,6.74-3.01,6.74-6.74s-3.01-6.74-6.74-6.74h-47.15Z"/>
  <path class="cls-2" d="m608.88,114.29c-3.73,0-6.74,3.01-6.74,6.74s3.01,6.74,6.74,6.74h20.21v67.36h-20.21c-3.73,0-6.74,3.01-6.74,6.74s3.01,6.74,6.74,6.74h53.89c3.73,0,6.74-3.01,6.74-6.74s-3.01-6.74-6.74-6.74h-20.21v-67.36h20.21c3.73,0,6.74-3.01,6.74-6.74s-3.01-6.74-6.74-6.74h-53.89Z"/>
  <path class="cls-2" d="m474.37,127.76c-18.6,0-33.68,15.08-33.68,33.68s15.08,33.68,33.68,33.68,33.68-15.08,33.68-33.68-15.08-33.68-33.68-33.68Zm47.15,33.68c0,26.04-21.11,47.15-47.15,47.15s-47.15-21.11-47.15-47.15,21.11-47.15,47.15-47.15,47.15,21.11,47.15,47.15Z"/>
  <path class="cls-2" d="m726.66,127.76c-18.6,0-33.68,15.08-33.68,33.68s15.08,33.68,33.68,33.68,33.68-15.08,33.68-33.68-15.08-33.68-33.68-33.68Zm47.15,33.68c0,26.04-21.11,47.15-47.15,47.15s-47.15-21.11-47.15-47.15,21.11-47.15,47.15-47.15,47.15,21.11,47.15,47.15Z"/>
  <path class="cls-2" d="m195.13,114.29c-7.44,0-13.47,6.03-13.47,13.47v73.96c0,3.45,2.81,6.62,6.25,6.86,3.94.27,7.22-2.83,7.22-6.72v-26.94h20.06l21.58,30.82c2.13,3.05,6.34,3.79,9.39,1.66s3.79-6.34,1.66-9.39l-17.72-25.3c11.18-4.54,19.05-15.56,18.92-28.41-.16-16.51-14.09-30-30.59-30h-23.29Zm23.37,47.15h-23.37v-33.68h23.58c9.49,0,17.15,7.85,16.83,17.41-.3,9.11-7.92,16.27-17.03,16.27Z"/>
  <path class="cls-2" d="m265.77,114.29c-3.73,0-6.74,3.01-6.74,6.74s3.01,6.74,6.74,6.74h26.94v74.09c0,3.73,3.01,6.74,6.74,6.74s6.74-3.01,6.74-6.74v-74.09h26.94c3.73,0,6.74-3.01,6.74-6.74s-3.01-6.74-6.74-6.74h-67.36Z"/>
</svg>