<?xml version="1.0" encoding="UTF-8"?>
<svg id="Layer_1" data-name="Layer 1" xmlns="http://www.w3.org/2000/svg" viewBox="0 0 200.45 200.76">
  <path d="m78.52,8.91c.21.02.43.03.66.02.19,0,.41,0,.65-.02s.48-.05.72-.1c.42-.08.6-.28.54-.59-.02-.12-.11-.23-.27-.33-.15-.1-.34-.2-.57-.31-.23-.11-.47-.24-.73-.37-.26-.14-.51-.31-.76-.5-.25-.2-.46-.43-.65-.7s-.32-.6-.4-.98c-.09-.43-.09-.83,0-1.19.09-.36.25-.68.48-.95.23-.27.52-.51.87-.7.35-.19.73-.33,1.15-.41.22-.04.44-.08.67-.1s.42-.04.6-.06c.21-.01.41-.03.61-.04l.52,2.57c-.08,0-.16.01-.25.02-.08,0-.16.01-.25.02-.09,0-.19.02-.29.04-.06.01-.12.03-.2.05-.08.02-.16.05-.23.08-.07.03-.13.08-.17.13-.05.06-.06.13-.04.21.01.07.1.15.24.24.15.08.32.18.53.29s.44.24.69.39c.25.15.49.33.72.54.23.21.44.46.62.75.19.29.32.62.4,1.01.08.4.09.79.04,1.17-.06.38-.19.73-.41,1.04-.22.32-.52.59-.91.83s-.87.41-1.45.53c-.35.07-.67.12-.98.15s-.57.04-.81.04c-.27,0-.53,0-.76-.02l-.55-2.74Zm1.48,1.41c.13,0,.28,0,.43-.01.13,0,.27-.02.41-.03.14-.01.29-.04.44-.07.26-.05.5-.13.73-.24.23-.11.43-.25.59-.43.16-.18.28-.38.35-.62.07-.24.08-.51.01-.82-.05-.27-.17-.5-.35-.71-.18-.21-.4-.41-.65-.58-.25-.18-.51-.34-.79-.5s-.53-.31-.78-.48c-.25-.16-.46-.34-.63-.51-.17-.18-.28-.38-.33-.6-.07-.33-.01-.6.16-.83.17-.22.5-.38.96-.47.07-.01.15-.03.23-.04.08-.01.16-.02.23-.02.08,0,.15-.02.22-.03l-.07-.36c-.06.01-.13.02-.21.03-.07,0-.14.01-.22.02-.08.01-.16.02-.24.04-.49.1-.88.29-1.15.58-.27.29-.36.67-.27,1.15.05.26.17.48.34.68.18.2.39.38.64.56s.51.34.78.49c.27.15.53.31.78.48.25.16.46.34.64.54s.29.41.34.65c.09.44,0,.8-.24,1.09-.25.29-.64.49-1.16.59-.31.06-.6.1-.86.1-.14,0-.28.01-.41.01l.07.36Z"/>
  <path d="m84.23,1.19l2.43-.29,2.98,3.27-.42-3.57,2.91-.34,1.09,9.27-2.45.29-2.96-3.26.42,3.56-2.91.34-1.09-9.27Zm2.62,7.97l-.76-6.42,5.35,5.88.36-.04-.83-7.05-.36.04.76,6.42-5.35-5.88-.36.04.83,7.05.36-.04Z"/>
  <path d="m93.68.2l5.5-.2.09,2.45-2.52.09.04,1.04,2.48-.09.08,2.32-2.48.09.04,1.08,2.62-.09.09,2.45-5.6.2-.33-9.33Zm4.85,8.05v-.34s-2.81.1-2.81.1l-.11-3.06,2.66-.09v-.34s-2.67.09-2.67.09l-.11-3.02,2.8-.1v-.34s-3.17.11-3.17.11l.25,7.09,3.16-.11Z"/>
  <path d="m103.44.08l2.24.1,3.12,9.49-2.94-.13-.27-.85-2.83-.12-.34.83-2.94-.13L103.44.08Zm-1.82,8.15l.3-.69,4.62.21.24.71.39.02-2.38-7.21-.53-.02-3.01,6.97.39.02Zm2.87-6.64l1.93,5.82-4.36-.19,2.44-5.62Zm.41,5.01l-.56-1.66-.7,1.61,1.26.06Z"/>
  <path d="m110.07.45l3,.42-.3,2.14,2.04-1.89,3.62.5-3.85,3.78,2.73,5.5-3.56-.5-1.57-3.13-.4,2.86-3-.42,1.29-9.25Zm.61,8.38l.26-1.87,1.69-1.59,2.01,4.01.43.06-2.15-4.33,2.91-2.73-.44-.06-4.37,4.08.64-4.6-.36-.05-.98,7.03.36.05Z"/>
  <path d="m119.42,1.87l5.37,1.2-.54,2.39-2.46-.55-.23,1.01,2.42.54-.51,2.27-2.42-.54-.24,1.05,2.55.57-.54,2.39-5.46-1.23,2.04-9.11Zm2.66,9.02l.07-.33-2.73-.61.67-2.99,2.6.58.07-.33-2.6-.58.66-2.95,2.73.61.07-.33-3.09-.69-1.55,6.93,3.09.69Z"/>
  <path d="m126.22,3.42l3.08.95c.57.18,1.08.42,1.51.72.44.3.79.65,1.06,1.06.27.4.43.85.5,1.35.07.49.01,1.02-.16,1.58-.14.45-.32.81-.54,1.08-.22.27-.44.49-.65.65-.25.18-.51.31-.78.4l.76,3.46-3.34-1.03-.64-2.67-.7,2.26-2.85-.88,2.75-8.92Zm.99,6.68c.35.11.7.18,1.05.21l.61,2.53.42.13-.64-2.66c.53-.02,1-.16,1.39-.43.39-.26.68-.68.85-1.24.12-.39.15-.76.09-1.1-.06-.34-.19-.65-.39-.93-.2-.28-.46-.53-.79-.74-.33-.21-.7-.38-1.12-.51l-1.44-.45-2.09,6.78.35.11.63-2.03,1.1.34Zm-1-.66l1.27-4.11,1.1.34c.81.25,1.39.62,1.74,1.12s.42,1.08.22,1.74c-.2.66-.59,1.1-1.16,1.31-.57.21-1.26.19-2.07-.06l-1.1-.34Zm1.51-.75l.15.05c.34.1.65.12.93.04.28-.08.48-.3.59-.65s.07-.65-.12-.87-.45-.39-.79-.49l-.15-.05-.61,1.98Z"/>
  <path d="m136.88,6.8l2.86,1.34-.41,3.41,2.36-2.5,1.85.87-.41,3.41,2.36-2.5,2.86,1.34-6.76,7.15-2.1-.99.35-2.96-2.05,2.16-2.1-.99,1.18-9.76Zm.57,9.34l4.18-4.52-.81,6.1.32.15,5.13-5.43-.34-.16-4.67,4.94.89-6.71-4.59,4.97.82-6.75-.34-.16-.9,7.42.32.15Z"/>
  <path d="m146.6,16.64c.36-.57.8-1.04,1.34-1.41.53-.37,1.11-.63,1.72-.77.61-.14,1.24-.16,1.88-.06.64.1,1.25.33,1.82.68.57.36,1.04.8,1.41,1.34s.62,1.11.77,1.72c.14.61.16,1.24.06,1.88-.1.64-.33,1.25-.68,1.82-.36.57-.8,1.04-1.34,1.41-.54.37-1.11.62-1.72.77-.61.14-1.24.16-1.88.06-.64-.1-1.25-.33-1.82-.68-.57-.36-1.04-.8-1.41-1.34s-.62-1.11-.77-1.72-.16-1.24-.06-1.88.33-1.25.68-1.82Zm1.12.7c-.26.42-.43.86-.5,1.33-.07.47-.06.93.05,1.38s.29.87.56,1.26c.27.39.61.71,1.03.98.42.26.86.43,1.33.5s.93.06,1.38-.05c.45-.1.87-.29,1.26-.56.39-.27.71-.61.98-1.03s.43-.86.5-1.33c.07-.47.06-.93-.05-1.38s-.29-.87-.56-1.26c-.27-.39-.61-.71-1.03-.98-.42-.26-.86-.43-1.33-.5s-.92-.06-1.38.05c-.45.1-.87.29-1.26.56s-.71.61-.98,1.03Zm1.33,4.63c-.38-.24-.69-.53-.93-.88-.24-.35-.41-.72-.5-1.13-.09-.41-.11-.82-.04-1.23.06-.42.21-.82.45-1.2.24-.38.53-.69.88-.93.35-.24.72-.4,1.13-.5s.82-.11,1.23-.04c.42.06.82.21,1.2.45.38.24.69.53.93.88.24.35.41.72.5,1.13.09.41.11.82.04,1.23-.06.42-.21.82-.45,1.2-.24.38-.53.69-.88.93-.35.24-.72.41-1.13.5-.41.09-.82.11-1.23.04-.42-.06-.82-.21-1.2-.45Zm.05-3.77c-.14.23-.23.47-.27.73-.04.26-.03.51.03.75.06.24.16.47.31.69.15.21.33.39.56.54.23.14.47.23.73.27.26.04.51.03.75-.03.24-.06.47-.16.69-.31.21-.15.39-.34.54-.56.14-.23.24-.47.27-.73.04-.26.03-.51-.02-.75-.06-.24-.16-.47-.31-.69s-.33-.39-.56-.54c-.23-.14-.47-.24-.73-.27-.26-.04-.51-.03-.75.02s-.47.16-.69.31c-.21.15-.39.34-.54.56Z"/>
  <path d="m158.55,18.77l2.55,1.97c.47.37.86.77,1.17,1.2.31.44.51.89.62,1.36s.1.95,0,1.44c-.11.49-.35.96-.71,1.43-.29.37-.58.64-.88.82-.3.18-.58.3-.84.38-.3.08-.59.11-.88.1l-.5,3.51-2.77-2.14.34-2.73-1.45,1.87-2.36-1.82,5.71-7.39Zm-1.42,6.6c.29.22.59.41.91.56l-.32,2.59.34.27.33-2.72c.51.17.99.2,1.45.09s.87-.4,1.23-.86c.25-.32.41-.66.47-1,.06-.34.05-.68-.04-1.01-.09-.33-.25-.66-.48-.97-.23-.31-.52-.6-.87-.87l-1.2-.92-4.34,5.61.29.22,1.3-1.68.91.7Zm-.7-.97l2.63-3.4.91.7c.67.52,1.08,1.07,1.24,1.66.15.59.02,1.16-.41,1.7s-.94.82-1.54.82c-.61,0-1.24-.26-1.92-.78l-.91-.7Zm1.67-.17l.12.09c.28.22.57.34.86.36.29.03.55-.11.78-.4.23-.3.29-.58.2-.86s-.29-.52-.57-.74l-.12-.09-1.27,1.64Z"/>
  <path d="m165.36,24.16l2.31,2.08-4.62,5.11,1.91,1.73-1.64,1.82-4.22-3.81,6.26-6.93Zm-1.87,9.38l.23-.25-2.33-2.1,4.53-5.02-.27-.24-4.76,5.27,2.6,2.35Z"/>
  <path d="m163.55,35.08l6.79-6.41,1.78,1.88c.6.64,1.07,1.27,1.39,1.91.33.63.51,1.26.55,1.87.04.61-.07,1.21-.33,1.79-.25.58-.66,1.13-1.22,1.66s-1.13.9-1.73,1.12-1.2.29-1.8.22-1.22-.29-1.84-.65c-.62-.36-1.23-.86-1.83-1.5l-1.78-1.88Zm1.78.25l.82.87c.93.99,1.87,1.53,2.79,1.61s1.8-.27,2.63-1.04c.82-.77,1.22-1.63,1.19-2.55-.03-.93-.51-1.89-1.45-2.88l-.82-.87-5.17,4.87Zm.49.03l4.68-4.41.57.6c.81.86,1.25,1.72,1.31,2.56.06.85-.3,1.64-1.07,2.37-.77.73-1.58,1.04-2.43.93-.85-.11-1.67-.59-2.49-1.46l-.57-.6Zm1.71.06c.48.51.97.79,1.48.84.5.05,1-.16,1.5-.62.5-.47.73-.95.71-1.46-.02-.5-.28-1.01-.76-1.52l-2.92,2.76Z"/>
  <path d="m179.88,50.84c.05.21.11.42.19.63.05.19.13.39.22.61.09.22.2.43.33.64.21.37.46.48.73.32.11-.06.18-.18.22-.36.04-.18.08-.39.11-.64.03-.25.07-.52.12-.81s.12-.58.23-.88.26-.58.46-.84c.2-.27.46-.5.8-.69.38-.22.75-.35,1.12-.38.37-.03.72.02,1.06.15s.65.33.94.6c.29.27.54.59.76.96.11.19.21.39.31.6s.17.39.25.55c.08.19.16.38.23.56l-2.26,1.31c-.03-.07-.06-.15-.1-.23-.03-.07-.06-.15-.1-.23-.04-.09-.08-.17-.13-.26-.03-.05-.07-.11-.11-.18-.05-.07-.1-.13-.15-.19-.05-.06-.12-.1-.18-.12-.07-.02-.14-.02-.21.03-.06.04-.11.14-.15.3-.03.17-.07.36-.11.6-.04.23-.09.49-.15.78s-.15.57-.28.86-.3.56-.51.83c-.21.27-.49.5-.83.7-.36.21-.72.34-1.1.41-.38.07-.75.05-1.12-.06-.37-.1-.73-.3-1.08-.6-.35-.29-.67-.7-.97-1.2-.18-.31-.33-.6-.45-.88s-.22-.53-.3-.76c-.09-.26-.17-.5-.23-.73l2.42-1.4Zm-.86,1.86c.04.13.09.26.15.4.05.12.1.25.16.38s.13.26.2.39c.13.23.29.43.46.61.18.18.37.33.59.42.22.1.45.14.7.14.25,0,.51-.09.78-.25.23-.14.42-.32.56-.56s.26-.5.35-.8c.09-.29.16-.6.22-.9.06-.31.13-.61.2-.89s.17-.54.29-.76c.11-.22.27-.39.46-.5.29-.17.57-.21.83-.11.27.09.52.35.76.76.04.06.07.13.11.2.04.07.07.14.1.21s.06.14.1.2l.32-.18c-.03-.06-.06-.12-.09-.19-.02-.06-.05-.13-.09-.2-.04-.07-.07-.14-.12-.22-.25-.44-.56-.74-.92-.91s-.75-.13-1.17.11c-.23.13-.4.31-.53.54-.13.23-.24.49-.32.79-.08.29-.16.59-.21.9-.06.31-.13.61-.2.89s-.18.54-.3.77-.29.41-.5.53c-.39.22-.76.26-1.11.12s-.66-.45-.93-.91c-.16-.27-.28-.54-.38-.79-.05-.13-.1-.26-.14-.39l-.32.18Z"/>
  <path d="m189.01,53.76l1.05,2.21-2.14,3.87,3.25-1.54,1.26,2.64-8.43,4.01-1.06-2.23,2.14-3.85-3.24,1.54-1.26-2.64,8.43-4.01Zm-6.71,5.03l5.84-2.78-3.86,6.95.16.33,6.41-3.05-.16-.33-5.84,2.78,3.86-6.95-.16-.33-6.41,3.05.16.33Z"/>
  <path d="m192.98,62.38l1.94,5.15-2.29.87-.89-2.36-.97.37.88,2.32-2.17.82-.88-2.32-1.01.38.92,2.45-2.29.87-1.98-5.24,8.74-3.3Zm-6.08,7.17l.31-.12-.99-2.62,2.87-1.08.94,2.49.31-.12-.94-2.49,2.83-1.07.99,2.62.31-.12-1.12-2.96-6.64,2.51,1.12,2.96Z"/>
  <path d="m196.21,71.63l.62,2.15-8,5.98-.81-2.83.72-.53-.78-2.72-.89-.06-.81-2.83,9.95.83Zm-8.3.86l.75.06,1.27,4.44-.6.45.11.38,6.08-4.55-.15-.51-7.57-.64.11.38Zm7.21.62l-4.9,3.68-1.2-4.2,6.11.52Zm-4.62,1.98l1.4-1.06-1.75-.15.35,1.21Z"/>
  <path d="m197.97,78.04l.55,2.97-2.12.39,2.44,1.34.67,3.59-4.8-2.45-4.35,4.33-.66-3.54,2.47-2.48-2.83.53-.55-2.97,9.18-1.71Zm-7.76,3.24l1.86-.35,2.04,1.1-3.17,3.18.08.43,3.42-3.41,3.51,1.9-.08-.44-5.26-2.85,4.57-.85-.07-.36-6.98,1.3.07.36Z"/>
  <path d="m199.58,87.37l.56,5.47-2.44.25-.25-2.51-1.03.1.25,2.47-2.31.24-.25-2.47-1.07.11.26,2.6-2.44.25-.57-5.57,9.29-.95Zm-7.71,5.37l.33-.03-.28-2.79,3.05-.31.27,2.65.33-.03-.27-2.65,3.01-.31.28,2.79.33-.03-.32-3.15-7.06.72.32,3.15Z"/>
  <path d="m200.26,94.32l.08,3.22c.01.6-.05,1.15-.2,1.66-.15.51-.37.96-.67,1.34-.3.38-.67.68-1.12.9s-.96.34-1.55.35c-.47.01-.87-.04-1.19-.17-.33-.12-.6-.26-.82-.41-.25-.18-.46-.39-.63-.61l-3.04,1.82-.08-3.5,2.33-1.46-2.37.06-.07-2.98,9.33-.23Zm-6.02,3.06c0,.36.05.72.14,1.06l-2.21,1.38v.43s2.33-1.46,2.33-1.46c.19.5.47.89.85,1.18.38.29.86.43,1.45.41.41,0,.77-.1,1.07-.26.3-.17.56-.39.76-.67s.35-.61.45-.98c.1-.38.14-.78.13-1.22l-.04-1.51-7.1.17v.36s2.14-.05,2.14-.05l.03,1.15Zm.31-1.16l4.3-.1.03,1.15c.02.85-.15,1.52-.51,2.01-.36.49-.89.74-1.58.76s-1.23-.21-1.61-.68c-.38-.47-.58-1.13-.6-1.98l-.03-1.15Zm1.19,1.19v.15c.01.35.1.65.26.9.16.24.43.36.81.35.37,0,.64-.14.79-.39.15-.25.22-.55.22-.91v-.15s-2.08.05-2.08.05Z"/>
  <path d="m200.45,105.46l-.36,3.14-3.36.71,3.12,1.44-.23,2.03-3.36.7,3.12,1.44-.36,3.14-8.93-4.11.26-2.31,2.92-.61-2.71-1.25.26-2.31,9.62-2.01Zm-8.67,3.53l5.62,2.51-6.04,1.19-.04.35,6.79,3.12.04-.38-6.17-2.84,6.64-1.31-6.18-2.76,6.65-1.39.04-.38-7.32,1.53-.04.35Z"/>
  <path d="m194.25,117.82c.65.16,1.24.43,1.76.81.52.39.95.85,1.28,1.38.33.53.55,1.12.66,1.76s.09,1.29-.07,1.94c-.16.65-.43,1.24-.81,1.76-.39.52-.85.95-1.38,1.28-.53.33-1.12.55-1.76.66s-1.29.09-1.94-.07c-.65-.16-1.24-.43-1.76-.81-.52-.39-.95-.85-1.28-1.38-.33-.53-.55-1.12-.66-1.76s-.09-1.29.07-1.94c.16-.65.43-1.24.81-1.76.39-.52.85-.95,1.38-1.28s1.12-.55,1.76-.66,1.29-.09,1.94.07Zm-.3,1.28c-.48-.12-.95-.13-1.42-.05-.46.08-.89.24-1.29.49s-.73.55-1.01.93c-.28.38-.48.81-.59,1.29-.12.48-.13.95-.05,1.42.08.46.24.89.49,1.29s.55.73.93,1.01c.38.28.81.48,1.29.59.48.12.95.13,1.42.05.46-.08.89-.24,1.29-.49s.73-.55,1.01-.93c.28-.38.48-.81.59-1.29.12-.48.13-.95.05-1.42-.08-.46-.24-.89-.49-1.29s-.55-.73-.93-1.01c-.38-.28-.81-.48-1.29-.59Zm-3.96,2.74c.1-.44.28-.82.54-1.16s.56-.62.91-.83c.35-.22.74-.36,1.15-.44.42-.07.84-.06,1.28.04s.82.28,1.16.54.62.56.83.91c.22.35.36.74.44,1.15.07.42.06.84-.04,1.28s-.28.82-.54,1.16-.56.62-.91.83c-.35.22-.74.36-1.15.44-.42.07-.84.06-1.28-.04s-.82-.28-1.16-.54-.62-.56-.83-.91c-.22-.35-.36-.74-.44-1.15-.07-.42-.06-.84.04-1.28Zm3.59-1.16c-.26-.06-.52-.07-.78-.03-.26.04-.49.13-.7.26-.21.13-.4.3-.55.51-.16.21-.26.44-.33.71-.06.26-.07.52-.03.78.04.26.13.49.26.7.13.21.3.4.51.55.21.16.44.26.71.33.26.06.52.07.78.03.26-.04.49-.13.7-.26.21-.13.4-.3.55-.51.16-.21.26-.44.33-.71.06-.26.07-.52.03-.78-.04-.26-.13-.49-.26-.7-.13-.21-.3-.4-.51-.55-.21-.16-.44-.26-.71-.33Z"/>
  <path d="m196.06,129.81l-1.05,3.04c-.2.56-.45,1.06-.77,1.49-.32.43-.68.77-1.09,1.02s-.87.4-1.36.45c-.5.05-1.02-.02-1.58-.21-.44-.15-.79-.34-1.06-.58-.27-.23-.47-.46-.63-.67-.17-.26-.29-.52-.38-.8l-3.48.65,1.14-3.31,2.69-.55-2.24-.77.98-2.82,8.82,3.05Zm-6.71.76c-.12.34-.2.69-.24,1.04l-2.55.52-.14.41,2.68-.55c0,.53.13,1,.38,1.41.25.4.65.7,1.21.89.39.13.75.18,1.1.13.34-.05.66-.17.95-.36.29-.19.54-.45.77-.76.22-.32.41-.68.55-1.1l.49-1.43-6.71-2.32-.12.34,2.01.7-.38,1.08Zm.69-.97l4.06,1.41-.38,1.08c-.28.8-.67,1.37-1.18,1.7-.51.33-1.09.38-1.74.16-.65-.23-1.08-.63-1.27-1.2-.19-.58-.15-1.26.13-2.07l.38-1.08Zm.7,1.53l-.05.15c-.12.34-.14.65-.07.93.07.29.28.49.63.61.35.12.64.09.88-.09.23-.18.4-.44.52-.78l.05-.15-1.96-.68Z"/>
  <path d="m193.12,138l-1.24,2.85-6.32-2.75-1.03,2.36-2.25-.98,2.27-5.21,8.56,3.73Zm-9.49,1.21l.31.13,1.25-2.88,6.2,2.7.15-.33-6.51-2.83-1.4,3.21Z"/>
  <path d="m182.19,139.78l8.23,4.41-1.22,2.28c-.41.77-.87,1.42-1.37,1.93-.5.51-1.03.88-1.6,1.11s-1.17.32-1.8.26c-.63-.06-1.28-.27-1.96-.63-.67-.36-1.21-.79-1.61-1.28s-.66-1.04-.78-1.64-.11-1.25.04-1.95c.15-.7.43-1.44.84-2.21l1.22-2.28Zm.33,1.76l-.56,1.05c-.64,1.2-.86,2.25-.64,3.16.22.91.83,1.62,1.82,2.16,1,.53,1.93.64,2.8.32s1.63-1.08,2.27-2.29l.56-1.05-6.26-3.35Zm.12.48l5.67,3.03-.39.73c-.56,1.04-1.23,1.73-2.01,2.06-.78.33-1.64.24-2.58-.26-.94-.5-1.49-1.17-1.66-2.01-.17-.84.03-1.78.59-2.82l.39-.73Zm.49,1.64c-.33.62-.44,1.17-.33,1.67.11.49.47.9,1.07,1.22.6.32,1.13.39,1.6.21.47-.18.87-.58,1.2-1.2l-3.54-1.9Z"/>
  <path d="m172.44,160.25c-.18.11-.37.24-.54.38-.16.11-.33.24-.51.4-.18.16-.35.33-.51.51-.28.32-.31.59-.07.8.09.08.23.11.41.1.18-.01.4-.05.64-.09.25-.05.52-.1.81-.15.29-.05.59-.07.91-.06s.63.07.94.17c.31.1.62.28.91.54.33.29.57.61.71.95s.21.69.2,1.05c-.02.36-.11.72-.27,1.08-.16.36-.39.7-.67,1.02-.15.17-.31.33-.47.48-.17.15-.31.29-.45.41-.16.13-.31.27-.46.4l-1.96-1.73c.06-.05.12-.11.19-.17.06-.05.12-.11.19-.17.07-.06.14-.13.21-.21.04-.04.08-.1.13-.16.05-.07.1-.13.13-.2.04-.07.05-.14.06-.21,0-.07-.03-.14-.09-.19-.06-.05-.17-.06-.33-.04-.17.02-.37.05-.6.09-.23.04-.49.07-.79.11s-.59.04-.9,0c-.31-.03-.62-.1-.95-.22s-.63-.3-.92-.56c-.31-.27-.55-.58-.74-.91-.18-.34-.28-.7-.3-1.08-.02-.38.06-.79.23-1.21.17-.42.45-.86.83-1.3.24-.27.46-.5.69-.71.23-.21.43-.38.62-.53.21-.17.42-.32.62-.45l2.1,1.85Zm-2.04-.23c-.11.08-.22.17-.33.27-.1.09-.2.18-.31.28-.11.1-.21.21-.31.32-.17.2-.32.41-.44.63-.12.23-.19.46-.21.7-.02.24,0,.48.09.71s.25.45.49.66c.2.18.44.3.71.36.27.06.56.08.87.07.31,0,.62-.04.93-.08s.62-.07.91-.09c.3-.02.57,0,.81.03.25.04.46.13.62.28.25.22.38.47.37.76,0,.28-.17.6-.48.96-.05.06-.1.11-.16.17-.06.06-.11.11-.17.16-.06.05-.11.1-.16.16l.27.24s.09-.1.15-.15c.05-.04.1-.09.16-.15s.11-.12.17-.18c.33-.38.52-.77.57-1.16.04-.4-.12-.75-.48-1.08-.2-.17-.42-.28-.69-.33-.26-.05-.54-.07-.85-.06-.3.01-.61.04-.92.08s-.62.07-.91.09c-.3.02-.57,0-.83-.04-.26-.05-.48-.15-.66-.31-.34-.3-.49-.63-.47-1.02s.21-.77.57-1.17c.21-.24.42-.44.63-.6.11-.09.21-.18.32-.26l-.27-.24Z"/>
  <path d="m172.57,169.83l-1.76,1.7-4.35-.8,2.5,2.59-2.11,2.03-6.48-6.72,1.77-1.71,4.33.8-2.49-2.58,2.11-2.03,6.48,6.72Zm-6.9-4.76l4.49,4.66-7.82-1.45-.26.25,4.93,5.11.26-.25-4.49-4.66,7.82,1.45.26-.25-4.93-5.11-.26.25Z"/>
  <path d="m165.64,176.35l-4.26,3.48-1.55-1.9,1.95-1.59-.66-.8-1.92,1.57-1.47-1.8,1.92-1.57-.68-.83-2.03,1.66-1.55-1.9,4.34-3.54,5.91,7.23Zm-8.74-3.47l.21.26,2.17-1.77,1.94,2.37-2.06,1.68.21.26,2.06-1.68,1.92,2.34-2.17,1.77.21.26,2.45-2-4.49-5.5-2.45,2Z"/>
  <path d="m157.94,182.34l-1.84,1.27-8.22-5.67,2.42-1.67.73.52,2.33-1.61-.22-.87,2.42-1.67,2.39,9.7Zm-3.47-7.59l.18.73-3.8,2.63-.62-.42-.32.22,6.26,4.3.44-.3-1.81-7.38-.32.22Zm1.72,7.03l-5.05-3.47,3.59-2.48,1.46,5.95Zm-3.35-3.74l1.45.99-.41-1.71-1.04.72Z"/>
  <path d="m152.42,186.06l-2.64,1.48-1.05-1.88-.49,2.74-3.19,1.78.79-5.33-5.49-2.73,3.14-1.76,3.14,1.55-1.41-2.52,2.64-1.48,4.56,8.15Zm-5.55-6.31l.92,1.65-.39,2.29-4.03-1.98-.38.21,4.33,2.15-.67,3.94.39-.22,1.02-5.9,2.27,4.06.32-.18-3.47-6.19-.32.18Z"/>
  <path d="m144.1,190.58l-5.01,2.28-1.02-2.23,2.29-1.04-.43-.94-2.25,1.03-.96-2.12,2.25-1.03-.45-.98-2.38,1.09-1.02-2.23,5.09-2.32,3.87,8.5Zm-7.56-5.58l.14.31,2.55-1.16,1.27,2.79-2.42,1.1.14.31,2.42-1.1,1.25,2.75-2.55,1.16.14.31,2.88-1.31-2.94-6.46-2.88,1.31Z"/>
  <path d="m137.74,193.46l-3.03,1.1c-.56.2-1.11.32-1.64.34-.53.02-1.03-.04-1.48-.21-.46-.16-.86-.42-1.21-.77-.35-.35-.63-.81-.83-1.36-.16-.44-.23-.83-.22-1.18.01-.35.05-.66.13-.91.09-.29.22-.56.38-.79l-2.7-2.3,3.29-1.2,2.12,1.75-.81-2.22,2.8-1.02,3.19,8.77Zm-4.82-4.73c-.34.12-.66.28-.96.47l-2.02-1.65-.41.15,2.12,1.73c-.41.34-.7.73-.85,1.18-.16.45-.13.95.07,1.5.14.39.34.7.59.93.25.24.55.4.88.51.33.1.69.14,1.08.11.39-.03.79-.12,1.2-.27l1.42-.52-2.43-6.67-.34.12.73,2-1.08.39Zm1.19-.08l1.47,4.04-1.08.39c-.8.29-1.49.34-2.07.16-.58-.19-.99-.6-1.22-1.25-.24-.65-.19-1.23.13-1.74.33-.51.89-.91,1.69-1.2l1.08-.39Zm-.75,1.51l-.14.05c-.33.12-.59.3-.77.53-.18.23-.2.53-.08.88.13.35.33.56.62.62.29.06.6.04.93-.08l.14-.05-.71-1.95Z"/>
  <path d="m127.19,197.2l-3.09.66-1.73-2.97-.38,3.42-2,.42-1.73-2.97-.38,3.41-3.09.66,1.07-9.77,2.27-.48,1.51,2.57.33-2.96,2.27-.48,4.95,8.49Zm-6.09-7.11l-.6,6.12-3.04-5.35-.34.07-.81,7.43.37-.08.74-6.76,3.34,5.89.66-6.74,3.42,5.87.37-.08-3.76-6.46-.34.07Z"/>
  <path d="m113.53,195.22c.06.67-.01,1.31-.21,1.93-.2.62-.5,1.17-.91,1.65-.4.48-.89.88-1.46,1.18s-1.19.49-1.86.55c-.67.06-1.31-.01-1.93-.21-.62-.2-1.17-.51-1.65-.91-.48-.4-.88-.89-1.18-1.46s-.49-1.19-.55-1.86c-.06-.67.01-1.31.21-1.93.2-.62.5-1.17.91-1.65.4-.48.89-.88,1.46-1.18.57-.31,1.19-.49,1.86-.55.67-.06,1.31.01,1.93.21.62.2,1.17.5,1.65.91.48.4.88.89,1.18,1.46.31.57.49,1.19.55,1.86Zm-1.31.12c-.04-.49-.18-.95-.4-1.36s-.51-.77-.87-1.07c-.35-.3-.76-.52-1.21-.67-.45-.15-.92-.2-1.41-.16-.49.04-.95.18-1.36.4-.42.22-.77.51-1.07.87-.3.35-.52.76-.67,1.21-.15.45-.2.92-.16,1.41.04.49.18.95.4,1.36.22.42.51.77.87,1.07.35.3.76.52,1.21.67.45.15.92.2,1.41.16.49-.04.95-.18,1.36-.4.42-.22.77-.51,1.07-.87.3-.35.52-.76.67-1.21.15-.45.2-.92.15-1.41Zm-3.86-2.89c.45-.04.87,0,1.27.14s.76.33,1.08.6c.32.27.58.58.78.96s.32.78.36,1.23,0,.87-.14,1.27-.33.76-.6,1.08c-.27.32-.58.58-.96.78-.37.2-.78.32-1.23.36-.45.04-.87,0-1.27-.14-.4-.13-.76-.33-1.08-.6-.32-.27-.58-.59-.78-.96-.2-.37-.32-.78-.36-1.23-.04-.45,0-.87.14-1.27.13-.4.33-.76.6-1.08.27-.32.59-.58.96-.78.37-.2.78-.32,1.23-.36Zm2.24,3.03c-.02-.27-.1-.52-.22-.75-.12-.23-.28-.42-.47-.58-.19-.16-.41-.28-.66-.36s-.5-.11-.77-.09c-.27.02-.52.1-.75.22-.23.12-.42.28-.58.47s-.28.41-.36.66c-.08.25-.11.5-.08.77.02.27.1.52.22.75.12.23.28.42.47.58s.41.28.66.36.5.11.77.08c.27-.02.52-.1.75-.22.23-.12.42-.28.58-.47.16-.19.28-.41.36-.66.08-.25.11-.5.09-.77Z"/>
  <path d="m102.67,200.76l-3.22-.05c-.6,0-1.15-.1-1.65-.26-.51-.17-.94-.41-1.31-.72-.37-.31-.65-.7-.86-1.15s-.3-.98-.29-1.57c0-.47.08-.86.22-1.19.14-.32.28-.59.45-.8.19-.24.4-.44.64-.61l-1.7-3.11,3.5.06,1.36,2.39.04-2.37,2.98.05-.15,9.34Zm-2.81-6.14c-.36,0-.72.03-1.07.09l-1.29-2.26h-.43s1.36,2.37,1.36,2.37c-.51.17-.91.44-1.22.8-.3.36-.46.84-.47,1.43,0,.41.07.77.22,1.08.15.31.37.57.64.79.27.21.59.38.97.49.37.11.78.17,1.21.18l1.51.02.11-7.1h-.36s-.04,2.12-.04,2.12l-1.15-.02Zm1.14.35l-.07,4.3-1.15-.02c-.85-.01-1.51-.21-1.99-.59-.47-.38-.71-.92-.69-1.61s.26-1.22.75-1.58c.49-.36,1.15-.53,2-.52l1.15.02Zm-1.24,1.14h-.15c-.35,0-.66.07-.91.22-.25.15-.38.42-.38.79,0,.37.11.64.36.8.24.16.54.25.9.25h.15s.03-2.07.03-2.07Z"/>
  <path d="m94.05,200.57l-3.1-.26.58-6.86-2.57-.22.21-2.44,5.66.48-.79,9.3Zm-4.19-8.6l-.03.33,3.12.27-.57,6.74.36.03.6-7.07-3.49-.3Z"/>
  <path d="m88.85,190.78l-1.54,9.21-2.55-.43c-.87-.14-1.62-.37-2.26-.68-.64-.31-1.17-.69-1.57-1.16-.4-.46-.67-1-.82-1.62s-.16-1.3-.03-2.06.36-1.4.7-1.93c.34-.54.77-.96,1.3-1.27.53-.31,1.15-.51,1.86-.59.71-.08,1.5-.05,2.36.09l2.55.43Zm-1.57.88l-1.17-.2c-1.34-.22-2.41-.09-3.2.41s-1.27,1.3-1.46,2.42c-.19,1.11.01,2.03.6,2.75.58.72,1.55,1.19,2.89,1.42l1.17.2,1.17-7Zm-.41.27l-1.06,6.34-.81-.14c-1.17-.2-2.03-.61-2.59-1.25-.56-.64-.75-1.48-.58-2.53.18-1.05.63-1.79,1.37-2.21s1.69-.54,2.86-.35l.81.14Zm-1.4.99c-.69-.12-1.25-.04-1.68.22-.43.26-.7.73-.82,1.4-.11.67,0,1.2.32,1.59.32.38.83.64,1.52.75l.66-3.96Z"/>
  <path d="m63.76,187.05c-.16-.14-.33-.28-.52-.41-.15-.12-.33-.24-.53-.37-.2-.12-.42-.24-.64-.34-.39-.18-.65-.12-.78.17-.05.11-.04.25.02.42.07.17.16.37.28.59s.24.47.37.73c.13.26.24.55.32.85.08.3.12.62.11.95,0,.33-.09.67-.25,1.03-.18.4-.42.72-.7.96-.28.24-.6.4-.95.49s-.72.11-1.11.05c-.39-.05-.78-.17-1.17-.34-.2-.09-.4-.2-.6-.31-.19-.11-.37-.22-.52-.31-.18-.11-.35-.22-.51-.33l1.09-2.38c.06.04.14.08.22.13.06.04.14.08.22.13.08.05.17.09.26.13.05.02.12.05.19.08.08.03.16.05.23.07.08.01.15.01.22,0,.07-.02.12-.07.16-.14.03-.07.01-.18-.06-.33-.07-.15-.15-.34-.26-.55-.1-.21-.21-.45-.33-.72-.12-.27-.21-.56-.27-.86-.06-.3-.08-.63-.07-.97.02-.34.11-.69.27-1.05.17-.37.39-.7.66-.97s.58-.47.94-.6.77-.17,1.22-.13.95.18,1.48.42c.32.15.62.3.88.45.26.16.49.3.68.44.23.16.43.31.6.46l-1.16,2.55Zm-.37-2.02c-.11-.08-.23-.16-.35-.24-.11-.07-.23-.14-.36-.22-.13-.07-.26-.14-.39-.2-.24-.11-.48-.19-.73-.23-.25-.05-.49-.05-.73,0-.24.05-.45.14-.65.3-.2.15-.36.37-.49.66-.11.25-.16.51-.14.79.02.28.08.56.18.85.1.29.21.58.34.87.13.29.25.57.35.85.1.28.17.54.21.79.04.25,0,.47-.09.68-.14.31-.34.5-.62.57-.27.08-.62.02-1.06-.18-.07-.03-.14-.07-.21-.1s-.14-.08-.2-.12c-.06-.04-.13-.07-.2-.11l-.15.33c.06.03.12.06.19.1.06.04.12.07.19.11.07.04.14.07.22.11.46.21.88.28,1.28.21s.69-.33.89-.77c.11-.24.15-.49.12-.75-.03-.26-.09-.54-.19-.83-.1-.29-.22-.57-.35-.86-.13-.29-.25-.57-.35-.85s-.17-.55-.2-.81c-.03-.26,0-.5.11-.72.19-.41.47-.65.84-.74.37-.09.8-.02,1.29.2.29.13.54.27.76.42.12.08.23.15.34.23l.15-.33Z"/>
  <path d="m54.58,189.93l-2.14-1.2-.49-4.4-1.76,3.14-2.55-1.43,4.56-8.15,2.15,1.2.49,4.38,1.75-3.13,2.55,1.43-4.56,8.15Zm2.56-7.99l-3.16,5.64-.87-7.9-.32-.18-3.47,6.19.32.18,3.16-5.64.87,7.9.32.18,3.47-6.19-.32-.18Z"/>
  <path d="m46.36,185.2l-4.56-3.07,1.37-2.03,2.09,1.41.58-.86-2.06-1.38,1.3-1.93,2.06,1.38.6-.89-2.17-1.46,1.37-2.03,4.65,3.13-5.21,7.75Zm.8-9.37l-.19.28,2.32,1.56-1.71,2.54-2.21-1.48-.19.28,2.21,1.49-1.69,2.51-2.32-1.56-.19.28,2.62,1.77,3.96-5.89-2.62-1.77Z"/>
  <path d="m38.38,179.54l-1.75-1.4,3.06-9.51,2.3,1.83-.28.85,2.21,1.76.76-.46,2.3,1.83-8.59,5.09Zm6.26-5.52l-.64.38-3.61-2.88.23-.71-.31-.24-2.32,7.23.42.33,6.54-3.86-.31-.24Zm-6.23,3.68l1.86-5.84,3.41,2.72-5.28,3.11Zm2.62-4.29l-.53,1.67,1.51-.89-.98-.79Z"/>
  <path d="m33.23,175.33l-2.18-2.1,1.5-1.55-2.77.33-2.63-2.54,5.33-.79,1.03-6.05,2.59,2.5-.57,3.46,2-2.08,2.18,2.1-6.48,6.72Zm4.44-7.14l-1.31,1.36-2.3.29.73-4.43-.31-.3-.81,4.77-3.96.5.32.31,5.94-.73-3.23,3.34.26.25,4.93-5.11-.26-.25Z"/>
  <path d="m26.5,168.68l-3.63-4.13,1.84-1.62,1.67,1.89.78-.68-1.64-1.86,1.74-1.54,1.64,1.86.81-.71-1.73-1.96,1.84-1.62,3.7,4.2-7.01,6.17Zm3.15-8.85l-.25.22,1.85,2.1-2.3,2.03-1.76-2-.25.22,1.76,2-2.27,2-1.85-2.1-.25.22,2.09,2.38,5.33-4.69-2.09-2.38Z"/>
  <path d="m21.91,163.43l-1.93-2.58c-.36-.48-.63-.97-.81-1.47-.18-.5-.26-1-.23-1.48.02-.48.15-.95.39-1.38s.59-.84,1.06-1.19c.37-.28.73-.47,1.07-.56.34-.09.64-.14.91-.14.31,0,.6.05.87.13l1.41-3.25,2.1,2.8-1.05,2.54,1.89-1.42,1.79,2.38-7.47,5.61Zm3.12-5.99c-.22-.29-.46-.55-.73-.78l.99-2.41-.26-.35-1.04,2.53c-.44-.3-.9-.45-1.38-.47s-.95.15-1.42.5c-.33.25-.57.53-.72.84s-.23.64-.23.99c0,.35.07.7.2,1.06.14.36.34.72.6,1.07l.91,1.21,5.68-4.26-.22-.29-1.7,1.28-.69-.92Zm.42,1.12l-3.44,2.58-.69-.92c-.51-.68-.76-1.32-.75-1.93.01-.61.29-1.12.84-1.54.55-.41,1.12-.54,1.7-.38.58.16,1.13.58,1.64,1.26l.69.92Zm-1.66-.28l-.09-.12c-.21-.28-.46-.48-.73-.58-.27-.1-.56-.04-.86.18-.3.22-.44.48-.42.78.02.29.14.58.35.86l.09.12,1.66-1.24Z"/>
  <path d="m15.28,154.45l-1.53-2.77,2.33-2.52-3.38.64-.99-1.79,2.33-2.52-3.38.64-1.53-2.77,9.66-1.83,1.13,2.03-2.02,2.19,2.93-.55,1.13,2.03-6.68,7.22Zm5.02-7.9l-6.03,1.21,4.23-4.47-.17-.31-7.34,1.39.18.33,6.68-1.26-4.66,4.91,6.64-1.34-4.62,4.99.18.33,5.08-5.48-.17-.31Z"/>
  <path d="m13.18,140.8c-.62.25-1.26.37-1.91.36s-1.26-.14-1.84-.39c-.58-.24-1.1-.59-1.56-1.05-.46-.46-.82-1-1.07-1.62-.25-.62-.37-1.26-.36-1.91.01-.65.14-1.26.39-1.84.24-.58.6-1.1,1.05-1.56.46-.46,1-.82,1.62-1.07s1.26-.37,1.91-.36c.65.01,1.26.14,1.84.39s1.1.6,1.56,1.05.82,1,1.07,1.62c.25.62.37,1.26.36,1.91-.01.65-.14,1.26-.39,1.84-.24.58-.6,1.1-1.05,1.56-.46.46-1,.82-1.62,1.07Zm-.49-1.22c.46-.19.85-.45,1.19-.78.33-.34.59-.72.77-1.14.18-.43.28-.88.29-1.35.01-.47-.08-.94-.26-1.4-.19-.46-.45-.85-.78-1.19-.34-.33-.72-.59-1.14-.77-.43-.18-.87-.28-1.35-.29-.47,0-.94.08-1.4.26s-.85.45-1.19.78-.59.72-.77,1.14c-.18.42-.28.87-.29,1.35,0,.47.08.94.26,1.4.19.46.45.85.78,1.19.34.33.72.59,1.14.77.43.18.87.28,1.35.29s.94-.08,1.4-.26Zm1.64-4.53c.17.42.25.83.24,1.26-.01.42-.1.82-.26,1.21s-.39.73-.69,1.03c-.3.3-.65.54-1.07.7-.42.17-.83.25-1.26.24-.42,0-.82-.1-1.21-.26s-.73-.39-1.03-.69c-.3-.3-.54-.65-.7-1.07-.17-.42-.25-.83-.24-1.26.01-.42.1-.82.26-1.21s.39-.72.69-1.03c.3-.3.65-.54,1.07-.7.42-.17.83-.25,1.26-.24s.82.1,1.21.26.72.39,1.03.69.54.65.7,1.07Zm-2.25,3.03c.25-.1.47-.24.65-.43.18-.18.32-.39.42-.62.1-.23.15-.48.16-.73,0-.26-.04-.51-.14-.77s-.24-.47-.43-.65c-.18-.18-.39-.32-.62-.42-.23-.1-.48-.15-.74-.16s-.51.04-.77.14c-.25.1-.47.25-.65.43-.18.18-.32.39-.42.62s-.15.48-.16.74c0,.26.04.51.14.76s.24.47.43.65.39.32.62.42.48.15.73.16c.26,0,.51-.04.77-.14Z"/>
  <path d="m4.75,132.06l-.91-3.09c-.17-.57-.25-1.13-.24-1.66,0-.53.11-1.02.3-1.47.19-.44.47-.83.85-1.16.38-.33.85-.58,1.41-.74.45-.13.85-.18,1.2-.15.35.03.65.1.9.19.29.11.54.25.77.43l2.46-2.54.98,3.36-1.88,2.01,2.27-.67.84,2.86-8.96,2.62Zm5.03-4.51c-.1-.35-.24-.68-.41-.99l1.78-1.91-.12-.42-1.86,2c-.31-.43-.69-.74-1.12-.93-.44-.18-.94-.19-1.5-.03-.39.12-.72.29-.97.53s-.44.52-.56.84c-.12.32-.19.68-.18,1.07,0,.39.06.79.19,1.21l.42,1.45,6.81-2-.1-.35-2.04.6-.32-1.1Zm0,1.2l-4.12,1.21-.32-1.1c-.24-.81-.25-1.51-.02-2.07.22-.57.67-.95,1.33-1.14.66-.19,1.24-.11,1.73.25.49.36.85.94,1.09,1.76l.32,1.1Zm-1.46-.84l-.04-.15c-.1-.34-.26-.61-.48-.8-.22-.19-.51-.24-.87-.13-.36.1-.58.3-.66.58-.08.28-.07.59.02.93l.04.15,1.99-.58Z"/>
  <path d="m2.4,123.7l-.64-3.04,6.74-1.42-.53-2.52,2.4-.5,1.17,5.56-9.14,1.93Zm7.03-6.49l-.33.07.65,3.07-6.62,1.39.08.36,6.95-1.46-.72-3.42Z"/>
  <path d="m10.28,115.9l-9.26,1.18-.33-2.57c-.11-.87-.11-1.66,0-2.36s.33-1.32.66-1.83c.33-.52.77-.93,1.31-1.25.55-.32,1.2-.53,1.96-.62.76-.1,1.44-.06,2.05.11s1.14.47,1.59.88c.45.42.82.95,1.1,1.61.29.66.48,1.42.59,2.29l.33,2.57Zm-1.29-1.25l-.15-1.18c-.17-1.35-.61-2.33-1.31-2.94s-1.62-.85-2.74-.7c-1.12.14-1.94.6-2.47,1.37-.52.77-.7,1.83-.53,3.18l.15,1.18,7.04-.9Zm-.38-.32l-6.37.81-.1-.82c-.15-1.18,0-2.12.45-2.84s1.2-1.15,2.26-1.28c1.06-.13,1.89.09,2.51.67s1,1.46,1.15,2.64l.1.82Zm-1.35-1.06c-.09-.69-.32-1.21-.7-1.55s-.9-.46-1.58-.38-1.15.34-1.43.76c-.28.42-.37.98-.28,1.67l3.99-.51Z"/>
  <path d="m6.34,93.6c.09-.2.16-.41.22-.62.07-.18.12-.39.18-.62.05-.23.09-.47.12-.71.04-.43-.09-.66-.41-.69-.12-.01-.25.04-.39.16s-.29.27-.47.45c-.17.18-.36.38-.57.59-.21.21-.44.4-.71.58-.26.18-.55.31-.87.41s-.67.13-1.06.09c-.44-.04-.81-.16-1.13-.36-.32-.19-.57-.44-.77-.74s-.33-.65-.41-1.03c-.08-.39-.09-.8-.05-1.22.02-.22.06-.44.1-.67.05-.22.09-.42.12-.59.05-.2.1-.4.15-.59l2.6.27c-.02.07-.03.16-.05.25-.02.07-.03.16-.05.25-.02.09-.03.19-.04.29,0,.06-.01.13-.01.21s0,.16.01.24c.01.08.04.14.08.21.04.06.1.09.19.1.07,0,.17-.05.3-.16.12-.11.27-.25.44-.42.17-.17.36-.35.58-.55.22-.2.46-.38.73-.53.27-.16.57-.28.9-.37.33-.09.69-.12,1.08-.08.41.04.79.15,1.13.31.34.17.63.4.87.7.24.3.41.67.52,1.12.11.44.13.96.07,1.54-.04.35-.09.68-.15.98s-.13.56-.2.79c-.07.26-.15.5-.24.72l-2.79-.29Zm1.79-1c.04-.13.08-.26.11-.41.03-.13.06-.26.09-.41.03-.14.05-.29.07-.44.03-.26.02-.52-.01-.77-.04-.25-.11-.48-.23-.69-.12-.21-.28-.38-.49-.52-.21-.14-.47-.22-.78-.26-.27-.03-.53.01-.79.12-.25.11-.5.26-.75.44s-.48.39-.71.6-.46.42-.69.6c-.23.19-.46.34-.68.45s-.45.16-.67.14c-.33-.03-.58-.17-.74-.4-.16-.23-.21-.58-.17-1.06,0-.07.02-.15.03-.23s.03-.15.04-.23c.02-.07.03-.15.04-.22l-.36-.04c0,.06-.02.13-.04.21-.02.06-.03.14-.04.21s-.02.16-.03.24c-.05.5.02.93.21,1.27.19.35.53.55,1.02.6.26.03.51-.02.75-.13.24-.11.48-.26.72-.45.24-.19.47-.39.7-.6.23-.22.46-.42.69-.6.23-.19.46-.34.7-.45.24-.11.48-.16.72-.13.45.05.77.23.97.56.2.33.27.75.22,1.28-.03.32-.08.6-.16.86-.03.14-.07.27-.11.4l.36.04Z"/>
  <path d="m.67,85.84l.45-2.41,4.01-1.88-3.54-.66.53-2.88,9.18,1.71-.45,2.42-3.99,1.86,3.52.66-.54,2.88-9.18-1.71Zm8.38-.14l-6.36-1.18,7.2-3.36.07-.36-6.98-1.3-.07.36,6.36,1.18-7.2,3.36-.07.36,6.98,1.3.07-.36Z"/>
  <path d="m2.52,76.51l1.45-5.31,2.36.65-.66,2.43,1,.27.65-2.39,2.24.61-.65,2.39,1.04.28.69-2.53,2.36.65-1.48,5.4-9.01-2.46Zm9.13-2.24l-.32-.09-.74,2.7-2.96-.81.7-2.57-.32-.09-.7,2.57-2.92-.8.74-2.7-.32-.09-.83,3.05,6.85,1.87.83-3.05Z"/>
  <path d="m5.33,67.14l.77-2.11,9.99-.14-1,2.76h-.89s-.97,2.66-.97,2.66l.68.58-1,2.76-7.57-6.52Zm7.23,4.18l-.57-.49,1.58-4.34h.75s.13-.38.13-.38l-7.59.11-.18.5,5.75,4.96.13-.37Zm-5.48-4.73l6.13-.1-1.49,4.11-4.64-4.01Zm4.9,1.11l-1.75.03,1.32,1.15.43-1.18Z"/>
  <path d="m7.68,60.92l1.3-2.73,1.95.93-1.19-2.52,1.57-3.3,2.44,4.8,6.06-.95-1.54,3.25-3.46.56,2.6,1.24-1.3,2.73-8.43-4.01Zm8.18,1.93l-1.71-.81-1.01-2.09,4.43-.71.19-.39-4.78.75-1.73-3.6-.19.4,2.58,5.4-4.2-2-.16.33,6.41,3.05.16-.33Z"/>
  <path d="m11.84,52.42l2.76-4.76,2.12,1.23-1.27,2.18.9.52,1.24-2.14,2.01,1.17-1.24,2.14.93.54,1.31-2.26,2.12,1.23-2.81,4.84-8.08-4.69Zm9.4.18l-.29-.17-1.41,2.42-2.65-1.54,1.34-2.3-.29-.17-1.34,2.3-2.62-1.52,1.41-2.42-.29-.17-1.59,2.74,6.14,3.56,1.59-2.74Z"/>
  <path d="m15.36,46.41l1.83-2.65c.34-.49.72-.9,1.14-1.23s.86-.56,1.33-.69c.47-.13.94-.16,1.44-.07.49.08.98.29,1.46.63.38.27.67.54.87.84.19.29.34.57.42.82.09.29.14.58.15.87l3.53.31-1.99,2.88-2.74-.19,1.95,1.34-1.69,2.45-7.69-5.3Zm6.67,1.06c.21-.3.38-.61.51-.94l2.6.18.25-.36-2.73-.18c.14-.52.14-1,0-1.46s-.44-.85-.93-1.18c-.34-.23-.68-.37-1.02-.42-.34-.04-.68-.01-1.01.09s-.64.28-.94.53c-.3.25-.58.55-.82.91l-.86,1.24,5.84,4.03.21-.3-1.75-1.21.65-.94Zm-.93.75l-3.54-2.44.65-.95c.48-.7,1.01-1.14,1.59-1.32.58-.18,1.15-.08,1.72.31.57.39.87.89.9,1.5.03.6-.2,1.26-.68,1.96l-.65.94Zm-.27-1.66l.09-.13c.2-.29.31-.58.32-.88.01-.29-.14-.55-.45-.76-.31-.21-.6-.26-.87-.15s-.51.32-.71.61l-.09.13,1.71,1.18Z"/>
  <path d="m21.78,37.26l2.14-2.33,3.13,1.41-1.68-3,1.38-1.51,3.13,1.41-1.68-3,2.14-2.33,4.8,8.58-1.57,1.71-2.72-1.22,1.45,2.6-1.57,1.71-8.96-4.04Zm9.08,2.25l-3.07-5.34,5.58,2.59.24-.26-3.65-6.52-.26.28,3.32,5.93-6.14-2.85,3.38,5.87-6.2-2.79-.26.28,6.81,3.07.24-.26Z"/>
  <path d="m34.07,30.92c-.44-.51-.75-1.08-.95-1.7-.19-.62-.27-1.24-.22-1.87.05-.62.22-1.23.5-1.81.29-.58.68-1.09,1.19-1.53.51-.44,1.08-.75,1.7-.95.62-.19,1.24-.27,1.87-.22s1.23.21,1.81.5c.58.29,1.09.68,1.53,1.19.44.51.75,1.08.95,1.7.19.62.27,1.24.22,1.87-.05.63-.21,1.23-.5,1.81-.29.58-.68,1.09-1.19,1.53-.51.44-1.08.75-1.7.95-.62.19-1.24.27-1.87.22s-1.23-.21-1.81-.5c-.58-.29-1.09-.68-1.53-1.19Zm1-.86c.32.38.69.67,1.12.88s.87.33,1.33.36c.46.04.92-.02,1.37-.16.45-.14.86-.37,1.24-.69.38-.32.67-.69.88-1.12s.33-.87.36-1.33c.04-.46-.02-.92-.16-1.37-.14-.45-.37-.86-.69-1.24s-.7-.67-1.12-.88c-.42-.21-.87-.33-1.33-.36-.46-.04-.92.02-1.37.16-.45.14-.86.37-1.24.69s-.67.7-.88,1.12-.33.87-.36,1.33c-.04.46.02.92.16,1.37.14.45.37.86.69,1.24Zm4.82.11c-.34.29-.71.5-1.11.62-.4.12-.81.17-1.23.14s-.81-.14-1.19-.32c-.38-.18-.72-.45-1.01-.79-.29-.34-.5-.71-.62-1.12-.12-.4-.17-.81-.14-1.23s.14-.81.32-1.19c.18-.38.45-.72.79-1.01.34-.29.71-.5,1.12-.62s.81-.17,1.23-.14.81.14,1.19.32c.38.18.72.45,1.01.79.29.34.5.71.62,1.11.12.4.17.81.14,1.23s-.14.81-.32,1.19c-.18.38-.45.72-.79,1.01Zm-3.58-1.17c.18.21.38.36.61.48s.47.18.72.2.5,0,.75-.09.47-.2.68-.38.37-.38.48-.61.18-.47.2-.72c.02-.25,0-.5-.09-.75-.08-.25-.2-.47-.38-.68s-.38-.37-.61-.48-.47-.18-.72-.2-.5,0-.75.09c-.25.08-.47.2-.68.38-.21.18-.36.38-.48.61s-.18.47-.2.72,0,.5.09.75.2.47.38.68Z"/>
  <path d="m39.66,20.15l2.64-1.85c.49-.34.99-.59,1.5-.76s1-.22,1.49-.18.94.18,1.37.43.82.62,1.15,1.1c.27.38.44.75.52,1.09.08.34.12.65.11.91-.01.31-.07.59-.16.87l3.2,1.52-2.87,2.01-2.5-1.14,1.36,1.94-2.44,1.71-5.35-7.65Zm5.88,3.32c.3-.21.57-.44.81-.7l2.37,1.07.36-.25-2.5-1.12c.31-.43.48-.89.52-1.36.03-.47-.12-.95-.46-1.43-.24-.34-.51-.59-.81-.75-.31-.16-.63-.25-.98-.26-.35-.01-.7.04-1.07.17-.37.13-.73.31-1.09.57l-1.24.87,4.07,5.82.3-.21-1.22-1.74.94-.66Zm-1.13.38l-2.46-3.52.94-.66c.7-.49,1.35-.71,1.96-.68.61.03,1.11.33,1.51.89.4.57.5,1.14.32,1.72-.18.58-.62,1.11-1.32,1.6l-.94.66Zm.33-1.65l.13-.09c.29-.2.49-.44.6-.71s.06-.56-.15-.87c-.21-.31-.47-.45-.76-.44s-.59.12-.88.32l-.13.09,1.19,1.7Z"/>
  <path d="m46.83,15.26l2.68-1.58,3.5,5.93,2.22-1.31,1.25,2.11-4.89,2.89-4.75-8.04Zm8.4,4.58l-.17-.29-2.7,1.6-3.44-5.82-.31.19,3.61,6.11,3.01-1.78Z"/>
  <path d="m56.72,20.23l-4.09-8.4,2.33-1.13c.79-.38,1.53-.64,2.24-.76.7-.12,1.35-.11,1.95.03.6.15,1.13.43,1.61.84.48.42.88.97,1.22,1.66.33.69.52,1.35.55,1.98.03.63-.08,1.23-.33,1.79s-.64,1.08-1.17,1.56c-.53.48-1.19.91-1.98,1.3l-2.33,1.13Zm.77-1.62l1.07-.52c1.23-.6,2.01-1.33,2.37-2.19s.28-1.8-.21-2.82c-.49-1.02-1.19-1.65-2.08-1.9-.89-.25-1.95-.08-3.18.52l-1.07.52,3.11,6.38Zm.18-.46l-2.81-5.78.74-.36c1.07-.52,2.01-.68,2.84-.49s1.47.77,1.94,1.73c.47.96.52,1.82.17,2.6-.35.77-1.07,1.42-2.13,1.94l-.74.36Zm.57-1.62c.63-.31,1.04-.69,1.24-1.16s.15-1-.15-1.62c-.3-.61-.69-.98-1.18-1.11-.49-.13-1.05-.04-1.67.27l1.76,3.61Z"/>
</svg>