<?xml version="1.0" encoding="UTF-8"?>
<svg id="Layer_1" data-name="Layer 1" xmlns="http://www.w3.org/2000/svg" viewBox="0 0 232.35 133.8">
  <g>
    <path d="M0,51.14C0,21.07,22.42,0,51.01,0s51.01,21.07,51.01,51.14-22.42,51.14-51.01,51.14S0,81.21,0,51.14Zm51.01,34.36c18.39,0,32.89-13.96,32.89-34.36s-14.5-34.5-32.89-34.5S18.12,30.74,18.12,51.14s14.36,34.36,32.89,34.36Z"/>
    <path d="M118.66,1.88h17.45V100.41h-17.45V1.88Z"/>
    <path d="M157.85,1.88h16.24l41.75,67.25V1.88h16.51V100.41h-16.11l-41.88-67.12V100.41h-16.51V1.88Z"/>
  </g>
  <g>
    <path d="M40.01,122.13c0-6.86,5-11.67,11.7-11.67s11.73,4.81,11.73,11.67-5.03,11.67-11.73,11.67-11.7-4.81-11.7-11.67Zm11.7,6.86c3.69,0,6.49-2.74,6.49-6.86s-2.8-6.86-6.49-6.86-6.46,2.74-6.46,6.86,2.77,6.86,6.46,6.86Z"/>
    <path d="M66.88,109.88h1.95v23.46h-1.95v-23.46Z"/>
    <path d="M72.27,125.33c0-4.91,3.54-8.38,7.95-8.38,2.65,0,4.94,1.22,6.09,3.14-.03-1.13-.06-2.25-.06-3.44v-6.76h1.95v23.46h-1.8v-2.99c-1.1,2.01-3.47,3.29-6.19,3.29-4.42,0-7.95-3.47-7.95-8.32Zm8.17,6.46c3.26,0,6-2.25,6-6.46s-2.74-6.52-6-6.52c-3.57,0-6.19,2.74-6.19,6.52s2.62,6.46,6.19,6.46Z"/>
    <path d="M119.95,110.92h5.06v22.43h-5.06v-22.43Z"/>
    <path d="M128.58,133.35v-1.77c1.22,.12,2.35,.18,3.02,.18,2.41,0,3.6-.82,3.6-2.53,0-1.22-.67-2.04-2.38-3.11l-1.1-.7c-2.22-1.37-3.23-2.68-3.23-4.42,0-2.38,1.89-3.9,5-3.9,.64,0,1.55,.06,2.41,.15v1.65c-.91-.09-1.62-.12-2.1-.12-2.19,0-3.38,.82-3.38,2.22,0,1.07,.73,1.89,2.47,2.96l1.16,.73c2.19,1.4,3.14,2.68,3.14,4.51,0,2.68-2.04,4.33-5.51,4.33-.73,0-1.89-.09-3.08-.18Z"/>
    <path d="M157.25,110.92h4.57l8.53,13.32v-13.32h4.75v22.43h-4.57l-8.53-13.29v13.29h-4.75v-22.43Z"/>
    <path d="M178.51,125.36c0-4.66,3.35-8.35,7.95-8.35,3.96,0,7.47,2.68,7.59,8.29h-13.65v.09c0,3.6,2.5,6.43,6.28,6.43,2.59,0,4.69-1.31,5.88-3.47l1.46,.94c-1.22,2.13-3.63,4.33-7.38,4.33-4.88,0-8.14-3.63-8.14-8.26Zm13.53-1.68c-.61-3.41-2.99-4.91-5.61-4.91-3.08,0-5.3,2.1-5.88,4.91h11.49Z"/>
    <path d="M195.39,117.26h2.07l4.17,13.41,4.51-13.41h1.83l4.42,13.29,4.21-13.29h2.01l-5.27,16.09h-1.8l-4.51-13.22-4.57,13.22h-1.89l-5.18-16.09Z"/>
  </g>
</svg>